<mxfile host="Electron" modified="2024-03-26T17:53:46.574Z" agent="Mozilla/5.0 (Windows NT 10.0; Win64; x64) AppleWebKit/537.36 (KHTML, like Gecko) draw.io/24.1.0 Chrome/120.0.6099.109 Electron/28.1.0 Safari/537.36" etag="N4t2OnD6XK1wjdshkn6f" version="24.1.0" type="device">
  <diagram name="Page-1" id="yYKwJIDjoUNk0RjjjVCF">
    <mxGraphModel dx="1036" dy="614" grid="1" gridSize="10" guides="1" tooltips="1" connect="1" arrows="1" fold="1" page="1" pageScale="1" pageWidth="850" pageHeight="1100" math="0" shadow="0">
      <root>
        <mxCell id="0" />
        <mxCell id="1" parent="0" />
        <mxCell id="9NnOV54TWqfmuR8BK7r5-10" style="edgeStyle=orthogonalEdgeStyle;rounded=0;orthogonalLoop=1;jettySize=auto;html=1;entryX=0;entryY=0.5;entryDx=0;entryDy=0;" edge="1" parent="1" source="9NnOV54TWqfmuR8BK7r5-1" target="9NnOV54TWqfmuR8BK7r5-2">
          <mxGeometry relative="1" as="geometry" />
        </mxCell>
        <mxCell id="9NnOV54TWqfmuR8BK7r5-1" value="User&#39;s Phone" style="rounded=1;whiteSpace=wrap;html=1;" vertex="1" parent="1">
          <mxGeometry x="10" y="260" width="70" height="110" as="geometry" />
        </mxCell>
        <mxCell id="9NnOV54TWqfmuR8BK7r5-2" value="ELB&lt;div&gt;(aka ALB)&lt;/div&gt;" style="rounded=1;whiteSpace=wrap;html=1;" vertex="1" parent="1">
          <mxGeometry x="140" y="200" width="80" height="70" as="geometry" />
        </mxCell>
        <mxCell id="9NnOV54TWqfmuR8BK7r5-3" value="TargetGroups" style="rounded=1;whiteSpace=wrap;html=1;" vertex="1" parent="1">
          <mxGeometry x="280" y="160" width="120" height="150" as="geometry" />
        </mxCell>
        <mxCell id="9NnOV54TWqfmuR8BK7r5-7" value="" style="edgeStyle=orthogonalEdgeStyle;rounded=0;orthogonalLoop=1;jettySize=auto;html=1;" edge="1" parent="1" source="9NnOV54TWqfmuR8BK7r5-4" target="9NnOV54TWqfmuR8BK7r5-6">
          <mxGeometry relative="1" as="geometry" />
        </mxCell>
        <mxCell id="9NnOV54TWqfmuR8BK7r5-4" value="ECS" style="rounded=1;whiteSpace=wrap;html=1;" vertex="1" parent="1">
          <mxGeometry x="340" y="250" width="60" height="60" as="geometry" />
        </mxCell>
        <mxCell id="9NnOV54TWqfmuR8BK7r5-6" value="" style="rounded=1;whiteSpace=wrap;html=1;" vertex="1" parent="1">
          <mxGeometry x="450" y="120" width="340" height="360" as="geometry" />
        </mxCell>
        <mxCell id="9NnOV54TWqfmuR8BK7r5-8" value="Fargate (EC2 instances)" style="text;html=1;align=center;verticalAlign=middle;whiteSpace=wrap;rounded=0;" vertex="1" parent="1">
          <mxGeometry x="480" y="90" width="200" height="30" as="geometry" />
        </mxCell>
        <mxCell id="9NnOV54TWqfmuR8BK7r5-9" value="drive-gooder (Docker)" style="rounded=1;whiteSpace=wrap;html=1;labelPosition=center;verticalLabelPosition=top;align=center;verticalAlign=bottom;" vertex="1" parent="1">
          <mxGeometry x="475" y="150" width="275" height="270" as="geometry" />
        </mxCell>
        <mxCell id="9NnOV54TWqfmuR8BK7r5-11" style="edgeStyle=orthogonalEdgeStyle;rounded=0;orthogonalLoop=1;jettySize=auto;html=1;entryX=-0.023;entryY=0.46;entryDx=0;entryDy=0;entryPerimeter=0;" edge="1" parent="1" source="9NnOV54TWqfmuR8BK7r5-2" target="9NnOV54TWqfmuR8BK7r5-3">
          <mxGeometry relative="1" as="geometry" />
        </mxCell>
        <mxCell id="9NnOV54TWqfmuR8BK7r5-13" value="NGinX" style="rounded=1;whiteSpace=wrap;html=1;labelPosition=center;verticalLabelPosition=top;align=center;verticalAlign=bottom;" vertex="1" parent="1">
          <mxGeometry x="490" y="180" width="240" height="200" as="geometry" />
        </mxCell>
        <mxCell id="9NnOV54TWqfmuR8BK7r5-19" style="edgeStyle=orthogonalEdgeStyle;rounded=0;orthogonalLoop=1;jettySize=auto;html=1;entryX=0;entryY=0.5;entryDx=0;entryDy=0;" edge="1" parent="1" source="9NnOV54TWqfmuR8BK7r5-14" target="9NnOV54TWqfmuR8BK7r5-15">
          <mxGeometry relative="1" as="geometry" />
        </mxCell>
        <mxCell id="9NnOV54TWqfmuR8BK7r5-14" value="Frontend" style="rounded=1;whiteSpace=wrap;html=1;" vertex="1" parent="1">
          <mxGeometry x="500" y="250" width="80" height="60" as="geometry" />
        </mxCell>
        <mxCell id="9NnOV54TWqfmuR8BK7r5-17" style="edgeStyle=orthogonalEdgeStyle;rounded=0;orthogonalLoop=1;jettySize=auto;html=1;entryX=0.5;entryY=0;entryDx=0;entryDy=0;" edge="1" parent="1" source="9NnOV54TWqfmuR8BK7r5-15" target="9NnOV54TWqfmuR8BK7r5-16">
          <mxGeometry relative="1" as="geometry" />
        </mxCell>
        <mxCell id="9NnOV54TWqfmuR8BK7r5-20" style="edgeStyle=orthogonalEdgeStyle;rounded=0;orthogonalLoop=1;jettySize=auto;html=1;entryX=0.5;entryY=0;entryDx=0;entryDy=0;" edge="1" parent="1" source="9NnOV54TWqfmuR8BK7r5-15" target="9NnOV54TWqfmuR8BK7r5-18">
          <mxGeometry relative="1" as="geometry" />
        </mxCell>
        <mxCell id="9NnOV54TWqfmuR8BK7r5-15" value="Backend" style="rounded=1;whiteSpace=wrap;html=1;" vertex="1" parent="1">
          <mxGeometry x="630" y="250" width="80" height="60" as="geometry" />
        </mxCell>
        <mxCell id="9NnOV54TWqfmuR8BK7r5-16" value="LLMs" style="rounded=1;whiteSpace=wrap;html=1;" vertex="1" parent="1">
          <mxGeometry x="670" y="490" width="120" height="60" as="geometry" />
        </mxCell>
        <mxCell id="9NnOV54TWqfmuR8BK7r5-18" value="OAuth providers" style="rounded=1;whiteSpace=wrap;html=1;" vertex="1" parent="1">
          <mxGeometry x="520" y="490" width="120" height="60" as="geometry" />
        </mxCell>
      </root>
    </mxGraphModel>
  </diagram>
</mxfile>
